<svg width="252" height="167" viewBox="0 0 252 167" fill="none" xmlns="http://www.w3.org/2000/svg">
<path d="M37.8306 135.671C36.0188 142.381 29.6699 146.574 29.6699 146.574C29.6699 146.574 26.2586 139.888 28.0704 133.178C29.8823 126.469 36.2312 122.276 36.2312 122.276C36.2312 122.276 39.6425 128.961 37.8306 135.671Z" fill="#3F3D56"/>
<path d="M35.0825 134.252C30.0078 139.127 29.4401 146.57 29.4401 146.57C29.4401 146.57 37.1 146.108 42.1747 141.232C47.2494 136.357 47.8171 128.914 47.8171 128.914C47.8171 128.914 40.1572 129.376 35.0825 134.252Z" fill="#A8DADC"/>
<path d="M41.4463 144.609H21.5961C19.4187 144.609 17.6537 146.326 17.6537 148.443V152.252C17.6537 154.37 19.4187 156.086 21.5961 156.086H41.4463C43.6236 156.086 45.3886 154.37 45.3886 152.252V148.443C45.3886 146.326 43.6236 144.609 41.4463 144.609Z" fill="#A8DADC"/>
<g opacity="0.7">
<path opacity="0.7" d="M232.299 137.278V133.142H211.035V152.269C211.035 152.799 211.143 153.323 211.351 153.812C211.559 154.301 211.865 154.746 212.25 155.12C212.635 155.495 213.092 155.792 213.595 155.994C214.098 156.197 214.637 156.301 215.182 156.301H228.153C229.252 156.301 230.307 155.877 231.084 155.12C231.862 154.364 232.299 153.339 232.299 152.269V148.03C233.763 148.027 235.167 147.46 236.201 146.452C237.236 145.444 237.817 144.078 237.817 142.654C237.817 141.23 237.236 139.864 236.201 138.856C235.167 137.848 233.763 137.28 232.299 137.278ZM232.299 145.962V139.345C233.201 139.345 234.067 139.694 234.705 140.314C235.343 140.935 235.701 141.776 235.701 142.654C235.701 143.531 235.343 144.373 234.705 144.993C234.067 145.614 233.201 145.962 232.299 145.962Z" fill="url(#paint0_linear)"/>
</g>
<path d="M231.615 137.925C230.616 137.925 229.64 138.213 228.81 138.752C227.98 139.292 227.333 140.058 226.951 140.955C226.569 141.852 226.469 142.839 226.664 143.791C226.859 144.744 227.34 145.618 228.045 146.305C228.751 146.991 229.651 147.459 230.63 147.648C231.609 147.838 232.624 147.74 233.546 147.369C234.469 146.997 235.257 146.368 235.812 145.561C236.366 144.754 236.663 143.805 236.663 142.834C236.663 141.532 236.131 140.283 235.184 139.363C234.237 138.442 232.954 137.925 231.615 137.925ZM231.615 145.855C231 145.855 230.4 145.677 229.889 145.345C229.378 145.014 228.98 144.542 228.745 143.99C228.51 143.438 228.448 142.83 228.568 142.244C228.688 141.658 228.984 141.12 229.418 140.698C229.853 140.275 230.406 139.988 231.009 139.871C231.611 139.754 232.236 139.814 232.804 140.043C233.371 140.272 233.856 140.659 234.198 141.155C234.539 141.652 234.721 142.236 234.721 142.834C234.721 143.635 234.394 144.403 233.811 144.97C233.229 145.536 232.439 145.855 231.615 145.855Z" fill="#A8DADC"/>
<path opacity="0.1" d="M231.615 137.925C230.616 137.925 229.64 138.213 228.81 138.752C227.98 139.292 227.333 140.058 226.951 140.955C226.569 141.852 226.469 142.839 226.664 143.791C226.859 144.744 227.34 145.618 228.045 146.305C228.751 146.991 229.651 147.459 230.63 147.648C231.609 147.838 232.624 147.74 233.546 147.369C234.469 146.997 235.257 146.368 235.812 145.561C236.366 144.754 236.663 143.805 236.663 142.834C236.663 141.532 236.131 140.283 235.184 139.363C234.237 138.442 232.954 137.925 231.615 137.925ZM231.615 145.855C231 145.855 230.4 145.677 229.889 145.345C229.378 145.014 228.98 144.542 228.745 143.99C228.51 143.438 228.448 142.83 228.568 142.244C228.688 141.658 228.984 141.12 229.418 140.698C229.853 140.275 230.406 139.988 231.009 139.871C231.611 139.754 232.236 139.814 232.804 140.043C233.371 140.272 233.856 140.659 234.198 141.155C234.539 141.652 234.721 142.236 234.721 142.834C234.721 143.635 234.394 144.403 233.811 144.97C233.229 145.536 232.439 145.855 231.615 145.855Z" fill="black"/>
<path d="M212.2 134.149H231.615V152.835C231.615 153.487 231.348 154.113 230.874 154.574C230.4 155.035 229.756 155.294 229.086 155.294H214.73C214.059 155.294 213.415 155.035 212.941 154.574C212.467 154.113 212.2 153.487 212.2 152.835V134.149Z" fill="#A8DADC"/>
<path d="M252 155.294H0V163.602H252V155.294Z" fill="#E0E0E0"/>
<g opacity="0.7">
<path opacity="0.7" d="M165.754 99.7118C163.053 90.1782 147.741 83.2165 136.22 81.6728C136.222 81.6025 136.226 81.5327 136.226 81.462V73.3011C136.238 73.2968 136.251 73.2931 136.263 73.2887V72.9794C140.352 71.5006 144.041 69.1373 147.053 66.0679C150.064 62.9986 152.319 59.3036 153.646 55.2624C154.358 54.0104 154.978 52.7108 155.501 51.3735C156.731 50.938 157.66 48.9658 157.66 46.5959C157.664 45.7853 157.547 44.9784 157.312 44.2006C157.463 42.9936 157.54 41.779 157.543 40.5631C157.548 36.3127 156.633 32.1088 154.859 28.2243C153.085 24.3398 150.491 20.8614 147.245 18.015C147.342 17.5267 147.374 17.0286 147.343 16.5324C147.082 12.6154 142.78 9.95433 138.748 9.77634C139.813 8.60132 140.513 7.15646 140.767 5.60971C141.021 4.06296 140.818 2.47787 140.183 1.03871C137.612 4.68125 132.333 5.06845 127.79 5.0971C129.751 4.35884 130.633 1.71745 129.493 0C124.744 6.18906 115.488 7.33511 109.841 12.7631C108.611 13.9503 107.579 15.318 106.785 16.8161C103.115 19.6595 100.152 23.2715 98.1162 27.383C96.0807 31.4946 95.0254 35.9998 95.0289 40.5631C95.0314 41.7679 95.107 42.9716 95.2552 44.1678C95.013 44.9555 94.8924 45.7738 94.8971 46.5959C94.8971 48.9767 95.8348 50.955 97.0731 51.3783C97.5981 52.7202 98.2208 54.0241 98.9363 55.28C100.259 59.2978 102.498 62.9729 105.488 66.0302C108.477 69.0875 112.138 71.4479 116.198 72.9349V81.462C116.198 81.5277 116.201 81.5924 116.203 81.6578C104.638 83.1749 89.2038 90.1914 86.5269 99.8017C84.2153 108.101 81.7477 117.215 80.5199 122.566C91.0437 129.757 113.126 133.98 126.965 133.98C140.113 133.98 161.604 130.169 171.818 123.621C170.712 117.741 168.166 108.227 165.754 99.7118Z" fill="url(#paint1_linear)"/>
</g>
<path d="M126.937 131.613C139.621 131.613 160.352 127.936 170.205 121.62C169.138 115.948 166.682 106.769 164.355 98.5555C161.392 88.0946 142.688 80.8424 131.53 80.8424H120.778C109.585 80.8424 90.854 88.1366 87.9277 98.6423C85.6977 106.648 83.3173 115.44 82.1329 120.602C92.2848 127.539 113.587 131.613 126.937 131.613Z" fill="#A8DADC"/>
<path d="M126.282 70.8193C142.935 70.8193 156.434 57.6912 156.434 41.4969C156.434 25.3027 142.935 12.1746 126.282 12.1746C109.629 12.1746 96.1293 25.3027 96.1293 41.4969C96.1293 57.6912 109.629 70.8193 126.282 70.8193Z" fill="#72351C"/>
<path opacity="0.1" d="M116.55 65.9199H135.87V80.9506C135.87 83.4421 134.853 85.8315 133.041 87.5933C131.229 89.3551 128.772 90.3448 126.21 90.3448H126.21C123.648 90.3448 121.191 89.3551 119.379 87.5933C117.568 85.8315 116.55 83.4421 116.55 80.9506V65.9199H116.55Z" fill="black"/>
<path d="M119.321 65.224H133.099C133.834 65.224 134.539 65.5079 135.059 66.0133C135.578 66.5187 135.87 67.2042 135.87 67.919V80.2547C135.87 82.7462 134.853 85.1357 133.041 86.8974C131.229 88.6592 128.772 89.6489 126.21 89.6489H126.21C123.648 89.6489 121.191 88.6592 119.379 86.8974C117.568 85.1357 116.55 82.7462 116.55 80.2547V67.919C116.55 67.2042 116.842 66.5187 117.362 66.0133C117.881 65.5079 118.586 65.224 119.321 65.224Z" fill="#FDA57D"/>
<path opacity="0.1" d="M116.586 73.0142C122.813 75.2767 129.667 75.2951 135.906 73.0661V70.7581H116.586V73.0142Z" fill="black"/>
<path d="M126.282 74.2723C141.576 74.2723 153.974 62.2153 153.974 47.3422C153.974 32.4691 141.576 20.4121 126.282 20.4121C110.988 20.4121 98.5892 32.4691 98.5892 47.3422C98.5892 62.2153 110.988 74.2723 126.282 74.2723Z" fill="#FDA57D"/>
<path opacity="0.1" d="M106.556 22.8464C106.556 22.8464 118.227 45.884 151.149 32.5019L143.485 20.8137L129.898 16.0707L106.556 22.8464Z" fill="black"/>
<path d="M106.556 22.5076C106.556 22.5076 118.227 45.5452 151.149 32.1631L143.485 20.4749L129.898 15.7319L106.556 22.5076Z" fill="#72351C"/>
<path d="M106.453 20.9513C107.239 18.5822 108.599 16.4313 110.418 14.6793C115.866 9.4431 124.795 8.33756 129.375 2.36719C130.475 4.02396 129.624 6.57201 127.733 7.28417C132.115 7.25653 137.207 6.88303 139.687 3.3692C140.301 4.7575 140.496 6.28658 140.251 7.77868C140.006 9.27077 139.331 10.6646 138.303 11.7981C142.193 11.9698 146.343 14.5368 146.594 18.3154C146.762 20.8327 145.139 23.216 143.012 24.6597C140.884 26.1033 138.311 26.766 135.778 27.3092C128.383 28.8946 101.628 35.5398 106.453 20.9513Z" fill="#72351C"/>
<path d="M153.973 47.5779H153.239L138.956 59.9437C125.195 53.6761 115.092 59.9437 115.092 59.9437L100.111 48.0861L98.6007 48.2707C98.8055 55.3386 101.861 62.0447 107.106 66.9409C112.352 71.837 119.367 74.5304 126.638 74.4395C133.908 74.3485 140.85 71.4805 145.965 66.4547C151.079 61.4289 153.956 54.6487 153.973 47.5779ZM126.24 64.6867C120.852 64.6867 116.485 63.6249 116.485 62.3152C116.485 61.0055 120.852 59.9437 126.24 59.9437C131.627 59.9437 135.994 61.0055 135.994 62.3152C135.994 63.625 131.627 64.6867 126.24 64.6867Z" fill="#72351C"/>
<path d="M98.5782 52.0137C100.001 52.0137 101.154 49.9107 101.154 47.3165C101.154 44.7224 100.001 42.6194 98.5782 42.6194C97.1555 42.6194 96.0022 44.7224 96.0022 47.3165C96.0022 49.9107 97.1555 52.0137 98.5782 52.0137Z" fill="#FDA57D"/>
<path d="M153.971 52.0137C155.393 52.0137 156.547 49.9107 156.547 47.3165C156.547 44.7224 155.393 42.6194 153.971 42.6194C152.548 42.6194 151.395 44.7224 151.395 47.3165C151.395 49.9107 152.548 52.0137 153.971 52.0137Z" fill="#FDA57D"/>
<g opacity="0.7">
<path opacity="0.7" d="M175.823 95.2819H76.1774C74.1001 95.2819 72.416 96.9196 72.416 98.9398V151.637C72.416 153.657 74.1001 155.294 76.1774 155.294H175.823C177.9 155.294 179.584 153.657 179.584 151.637V98.9398C179.584 96.9196 177.9 95.2819 175.823 95.2819Z" fill="url(#paint2_linear)"/>
</g>
<path d="M170.681 96.3892H81.3188C77.4742 96.3892 74.3575 99.42 74.3575 103.159V148.525C74.3575 152.264 77.4742 155.294 81.3188 155.294H170.681C174.526 155.294 177.643 152.264 177.643 148.525V103.159C177.643 99.42 174.526 96.3892 170.681 96.3892Z" fill="#535461"/>
<path d="M126 129.24C127.93 129.24 129.495 127.719 129.495 125.842C129.495 123.965 127.93 122.443 126 122.443C124.07 122.443 122.505 123.965 122.505 125.842C122.505 127.719 124.07 129.24 126 129.24Z" fill="white"/>
<path d="M241.322 163.602H10.678V167H241.322V163.602Z" fill="#E0E0E0"/>
<path opacity="0.1" d="M241.322 163.602H10.678V164.734H241.322V163.602Z" fill="black"/>
<path opacity="0.1" d="M228.12 134.149V151.613C228.12 152.589 227.721 153.526 227.011 154.216C226.301 154.907 225.338 155.294 224.334 155.294H226.276C227.28 155.294 228.243 154.907 228.953 154.216C229.663 153.526 230.062 152.589 230.062 151.613V134.149H228.12Z" fill="black"/>
<path d="M216.031 120.073C215.704 120.128 215.335 120.214 215.174 120.497C214.919 120.946 215.381 121.452 215.802 121.76C216.58 122.33 217.4 122.89 217.929 123.686C218.458 124.481 218.624 125.591 218.046 126.353C217.291 127.349 215.49 127.563 215.316 128.788C215.204 129.575 215.903 130.246 216.612 130.641C218.36 131.615 220.615 131.875 221.882 133.399C222.406 132.351 223.578 131.745 224.746 131.487C225.914 131.228 227.128 131.247 228.313 131.072C228.695 131.015 229.126 130.902 229.297 130.564C229.628 129.911 228.684 129.127 229.01 128.471C229.258 127.972 229.986 128.011 230.518 127.811C231.384 127.485 231.741 126.401 231.495 125.531C231.249 124.66 230.555 123.98 229.825 123.422C227.858 121.918 225.492 121.034 223.099 120.398C221.986 120.103 220.68 119.639 219.524 119.594C218.408 119.551 217.136 119.89 216.031 120.073Z" fill="#EEEEEE"/>
<defs>
<linearGradient id="paint0_linear" x1="224.431" y1="156.301" x2="224.431" y2="133.142" gradientUnits="userSpaceOnUse">
<stop stop-color="#808080" stop-opacity="0.25"/>
<stop offset="0.53514" stop-color="#808080" stop-opacity="0.12"/>
<stop offset="1" stop-color="#808080" stop-opacity="0.1"/>
</linearGradient>
<linearGradient id="paint1_linear" x1="54919" y1="87100.9" x2="54919" y2="15943.6" gradientUnits="userSpaceOnUse">
<stop stop-color="#808080" stop-opacity="0.25"/>
<stop offset="0.53514" stop-color="#808080" stop-opacity="0.12"/>
<stop offset="1" stop-color="#808080" stop-opacity="0.1"/>
</linearGradient>
<linearGradient id="paint2_linear" x1="52126.1" y1="37038.9" x2="52126.1" y2="22762.3" gradientUnits="userSpaceOnUse">
<stop stop-color="#808080" stop-opacity="0.25"/>
<stop offset="0.53514" stop-color="#808080" stop-opacity="0.12"/>
<stop offset="1" stop-color="#808080" stop-opacity="0.1"/>
</linearGradient>
</defs>
</svg>
